<?xml version="1.0" encoding="UTF-8"?>
<svg width="211px" height="22px" viewBox="0 0 211 22" version="1.1" xmlns="http://www.w3.org/2000/svg" xmlns:xlink="http://www.w3.org/1999/xlink">
    <title>strike-KO</title>
    <g id="Page-2" stroke="none" stroke-width="1" fill="none" fill-rule="evenodd">
        <g id="Balances-+-Price-Scroll" transform="translate(-30.000000, -28.000000)" fill="#FFFFFF" fill-rule="nonzero">
            <g id="strike-KO" transform="translate(30.000000, 28.000000)">
                <path d="M0.0892466333,16.6073753 C-0.300886508,15.6847433 0.62269399,14.7382502 2.18322656,14.4757773 C3.74375912,14.2133044 5.36798689,14.7621114 5.78996764,15.7165582 C6.3791483,17.0448301 10.5671081,18.4844541 16.2678291,18.4844541 C20.0656559,18.4844541 26.15651,17.8481562 25.9654244,15.4302242 C25.7743388,13.2111352 19.5322085,12.5430224 15.8299246,12.2487346 C9.00657558,11.6442516 2.23099796,10.2921186 1.99214094,6.19595083 C1.6975506,1.93275488 8.86326136,0 16.2678291,0 C23.0911782,0 28.887442,1.75777296 30.7425649,4.38250181 C31.3715551,5.27331887 30.6947935,6.28344179 29.1501847,6.65726681 C27.605576,7.03109183 25.9654244,6.60159074 25.2966247,5.71077368 C24.1819586,4.23933478 19.5481323,3.48373102 16.2359815,3.48373102 C12.5336977,3.48373102 7.66101434,4.06435286 7.85209996,6.0527838 C7.85209996,7.98553868 13.5050496,8.53434563 16.6738861,8.79681851 C23.9829111,9.48083876 31.6342978,10.9840926 31.8014977,15.3347795 C31.9527738,19.9240781 24.4447013,22 16.2120958,22 C9.54002294,22 1.6895887,20.2660882 0.0335133274,16.6312364 M52.0724972,19.812726 L52.0724972,4.00867679 L40.0898365,4.00867679 C38.4974563,4.00867679 37.1678189,3.21330441 37.1678189,2.25090383 C37.1678189,1.28850325 38.4815325,0.52494577 40.0898365,0.52494577 L70.0106598,0.52494577 C71.6667352,0.52494577 72.9884108,1.32031815 72.9884108,2.25090383 C72.9884108,3.18148952 71.6667352,4.00867679 70.0106598,4.00867679 L58.0678086,4.00867679 L58.0678086,19.7809111 C58.0678086,20.7353579 56.746133,21.5148228 55.0900577,21.5148228 C53.4339823,21.5148228 52.1680401,20.7194505 52.1680401,19.7809111 M81.2528638,19.7809111 L81.2528638,12.0578453 C81.2528638,10.9363702 82.3277205,10.3000723 84.2306148,10.3000723 L99.7722452,10.3000723 C102.407634,10.3000723 104.406071,9.20245842 104.406071,7.11858279 C104.406071,5.03470716 102.30413,4.03253796 99.7722452,4.03253796 L84.1908053,4.03253796 C82.287911,4.03253796 81.2130543,3.40419378 81.2130543,2.274765 C81.2130543,1.32827187 82.5347299,0.548806941 84.1430338,0.548806941 L99.7324357,0.548806941 C105.043024,0.548806941 110.258069,2.79971077 110.258069,7.11858279 C110.258069,10.4909617 107.192737,12.4555315 103.777081,13.2906725 L108.801041,19.0014461 C109.525574,19.8365871 108.944355,20.9023861 107.527137,21.3318872 C106.109918,21.7613883 104.342376,21.4750542 103.546186,20.5842372 L97.5906844,13.7599422 L87.1128229,13.7599422 L87.1128229,19.7809111 C87.1128229,20.7353579 85.7991092,21.5148228 84.1430338,21.5148228 C82.4869585,21.5148228 81.2130543,20.7194505 81.2130543,19.7809111 M122.392006,19.7809111 L122.392006,2.28271873 C122.392006,1.3362256 123.705719,0.556760665 125.314023,0.556760665 C126.922327,0.556760665 128.283812,1.35213304 128.283812,2.28271873 L128.283812,19.7809111 C128.283812,20.7353579 126.922327,21.5148228 125.314023,21.5148228 C123.705719,21.5148228 122.392006,20.7194505 122.392006,19.7809111 M140.903425,19.7809111 L140.903425,2.28271873 C140.903425,1.3044107 142.217139,0.52494577 143.873214,0.52494577 C145.529289,0.52494577 146.803193,1.32031815 146.803193,2.28271873 L146.803193,10.4671005 L165.027985,1.01012292 C166.3803,0.372247112 167.957652,0.42556136 169.263716,1.15328995 C170.386344,1.90093999 170.290801,3.05422993 169.016897,3.69052784 L155.569246,10.6659436 L169.104478,18.4526392 C170.322649,19.1446132 170.322649,20.2979031 169.200021,20.9898771 C167.857432,21.6983437 166.251145,21.6983437 164.908556,20.9898771 L151.023001,13.0361533 L146.803193,15.2393348 L146.803193,19.8206797 C146.803193,20.7751265 145.481518,21.5545915 143.873214,21.5545915 C142.26491,21.5545915 140.903425,20.7592191 140.903425,19.8206797 M185.171594,0.52494577 L208.077982,0.52494577 C209.670363,0.52494577 211,1.32031815 211,2.25090383 C211,3.18148952 209.678324,4.00867679 208.077982,4.00867679 L185.171594,4.00867679 C183.419975,4.00867679 182.154033,3.26102675 182.154033,2.25090383 C182.154033,1.24078091 183.467747,0.52494577 185.123822,0.52494577 M182.154033,19.7809111 L182.154033,12.0578453 C182.154033,11.0159074 183.419975,10.2682574 185.171594,10.2682574 L201.596995,10.2682574 C203.189375,10.2682574 204.519013,11.0636298 204.519013,12.0260304 C204.519013,12.9884309 203.197337,13.7599422 201.596995,13.7599422 L188.061764,13.7599422 L188.061764,18.0231381 L208.046135,18.0231381 C209.638515,18.0231381 210.968152,18.8185105 210.968152,19.7809111 C210.968152,20.7433116 209.646477,21.5148228 208.046135,21.5148228 L185.171594,21.5148228 C183.515518,21.5148228 182.201805,20.7194505 182.201805,19.7809111" id="Shape"></path>
            </g>
        </g>
    </g>
</svg>