<?xml version="1.0" encoding="UTF-8"?>
<svg width="16px" height="12px" viewBox="0 0 16 12" version="1.1" xmlns="http://www.w3.org/2000/svg" xmlns:xlink="http://www.w3.org/1999/xlink">
    <title>Shape</title>
    <g id="Mobile-Approver-App-2.0" stroke="none" stroke-width="1" fill="none" fill-rule="evenodd">
        <g id="Approval-List-II" transform="translate(-24.000000, -105.000000)" fill="#FFFFFF" fill-rule="nonzero">
            <g id="Group-8" transform="translate(11.000000, 100.000000)">
                <path d="M13,8.36036147 L13,7.88041239 C13,7.48280458 13.3357813,7.16048877 13.75,7.16048877 L25,7.16048877 L25,5.72064153 C25,5.07969953 25.8093438,4.7594835 26.2803438,5.21156554 L28.7803438,7.61131094 C29.0732188,7.89247111 29.0732188,8.34830275 28.7803438,8.62943293 L26.2803438,11.0291783 C25.811125,11.4794906 25,11.1637441 25,10.5201323 L25,9.0802851 L13.75,9.0802851 C13.3357813,9.0802851 13,8.75796929 13,8.36036147 Z M28.25,12.9198777 L17,12.9198777 L17,11.4800305 C17,10.8406783 16.1918125,10.5177326 15.7196562,10.9709545 L13.2196562,13.3706999 C12.9267812,13.6518601 12.9267812,14.1076917 13.2196562,14.3888219 L15.7196562,16.7885673 C16.1892812,17.2393295 17,16.9225631 17,16.2795213 L17,14.8396741 L28.25,14.8396741 C28.6642187,14.8396741 29,14.5173583 29,14.1197504 L29,13.6398014 C29,13.2421936 28.6642187,12.9198777 28.25,12.9198777 Z" id="Shape"></path>
            </g>
        </g>
    </g>
</svg>