<?xml version="1.0" encoding="UTF-8"?>
<svg width="14px" height="16px" viewBox="0 0 14 16" version="1.1" xmlns="http://www.w3.org/2000/svg" xmlns:xlink="http://www.w3.org/1999/xlink">
    <title>Combined Shape</title>
    <g id="Mobile-Approver-App-2.0" stroke="none" stroke-width="1" fill="none" fill-rule="evenodd">
        <g id="Approval-List-II" transform="translate(-23.000000, -522.000000)" fill="#FFFFFF">
            <path d="M30.5,524 C34.0898509,524 37,526.910149 37,530.5 C37,532.251903 36.3069211,533.841929 35.179998,535.010843 L33.2761107,533.379799 C34.030651,532.65226 34.5,531.630941 34.5,530.5 C34.5,528.290861 32.709139,526.5 30.5,526.5 C28.290861,526.5 26.5,528.290861 26.5,530.5 C26.5,531.072137 26.6201202,531.616219 26.836517,532.108401 L27.8971834,531.658377 C28.4055642,531.442582 28.9926245,531.67977 29.2084193,532.18815 C29.3049463,532.415553 29.3138825,532.670638 29.2335057,532.904239 L28.1369421,536.091201 C27.9572523,536.613437 27.3882293,536.891125 26.8659937,536.711435 C26.832838,536.700027 26.8003053,536.686883 26.7685303,536.672057 L23.7142843,535.247009 C23.2137964,535.013492 22.997374,534.418463 23.2308914,533.917975 C23.3353457,533.694103 23.5189705,533.516818 23.7463737,533.420291 L24.5346564,533.085762 C24.1906894,532.293321 24,531.418929 24,530.5 C24,526.910149 26.9101491,524 30.5,524 Z" id="Combined-Shape" transform="translate(30.068433, 530.383058) scale(-1, 1) rotate(-248.000000) translate(-30.068433, -530.383058) "></path>
        </g>
    </g>
</svg>