<?xml version="1.0" encoding="utf-8"?>
<!-- Generator: Adobe Illustrator 27.0.1, SVG Export Plug-In . SVG Version: 6.00 Build 0)  -->
<svg version="1.1" id="Layer_1" xmlns="http://www.w3.org/2000/svg" xmlns:xlink="http://www.w3.org/1999/xlink" x="0px" y="0px"
	 viewBox="0 0 362.7 67.4" style="enable-background:new 0 0 362.7 67.4;" xml:space="preserve">
<style type="text/css">
	.st0{fill:#FFFFFF;}
</style>
<path class="st0" d="M106.7,57.6c-7.9,0-14.5-3.3-18.6-8.8c30.3-13.6,43.2-21.1,43.2-32.2C131.3,7.8,123,0,108.5,0
	C89.9,0,73.3,13.1,73.3,33.6c0,19.1,14.2,33.6,33.5,33.6c11.8,0,22.4-6.2,28.6-14.2l-7.3-6.5C122.7,52.9,115.5,57.6,106.7,57.6z
	 M83.2,33.7c0-15.3,12.2-24.4,25.6-24.4c8.9,0,12.1,3.7,12.1,7.2c0,7-10.3,12.9-36.6,24.5C83.5,38.7,83.2,36.2,83.2,33.7z M34,57.6
	c-13.7,0-24-10.3-24-23.9C10,20.3,20.3,9.8,33.6,9.8c6.7,0,12.6,2.7,16.9,7.1l6.9-6.9c-6-6-14.4-9.8-23.8-9.8
	C14.8,0.2,0,15.2,0,33.8c0,18.8,14.7,33.6,34.1,33.6c9.5,0,18-3.7,24.1-9.8l-7-6.9C46.8,54.9,40.8,57.6,34,57.6z M210.5,20.9
	c-3.4-11.2-12.6-20.8-28.6-20.8s-25.2,9.6-28.6,20.8c-1.1,3.7-1.7,9.2-1.7,15.7v28.9h10V37.4c0-6.1,0.2-9.9,1.3-13.6
	c2.3-7.5,7.7-14,18.9-14s16.7,6.6,18.9,14c1.1,3.8,1.3,7.5,1.3,13.6v28.1h10V36.6C212.2,30.1,211.6,24.6,210.5,20.9z M329.1,0
	c-18.8,0-33.6,15-33.6,33.6s14.8,33.6,33.6,33.6c18.8,0,33.6-15,33.6-33.6S347.9,0,329.1,0z M329.1,57.6
	c-13.3,0-23.6-10.6-23.6-23.9c0-13.4,10.3-23.9,23.6-23.9c13.3,0,23.6,10.6,23.6,23.9S342.4,57.6,329.1,57.6z M257.5,28.9
	c-14.2-3.1-16.2-5.5-16.2-10.4c0-4.4,3.9-8.8,12.2-8.8c9,0,13.9,3.7,17.2,6.3l6.4-7.7C272.9,5,265.5,0,253.6,0
	c-12.7,0-22.3,7.6-22.3,18.6c0,11.3,7.8,16.3,21.7,19.4c11.6,2.6,16.2,4.3,16.2,10.2c0,6-5.8,9.4-12.9,9.4c-8.8,0-15-3.5-20.5-8.4
	l-6.8,7.3c11.6,10.2,22.2,10.6,27.2,10.6c10.6,0,23.1-5.6,23.1-19.2C279.3,35.2,268,31.1,257.5,28.9z"/>
</svg>
