<?xml version="1.0" encoding="UTF-8"?>
<svg width="11px" height="12px" viewBox="0 0 11 12" version="1.1" xmlns="http://www.w3.org/2000/svg" xmlns:xlink="http://www.w3.org/1999/xlink">
    <title>Lock</title>
    <g id="Mobile-Approver-App-2.0" stroke="none" stroke-width="1" fill="none" fill-rule="evenodd">
        <g id="Approval-List-II" transform="translate(-25.000000, -316.000000)">
            <g id="Group-8-Copy" transform="translate(11.000000, 311.000000)">
                <g id="Lock" transform="translate(14.000000, 5.000000)">
                    <path d="M6.98205648,2.32672804 C7.72521512,2.32672804 8.39801899,2.62795259 8.8850332,3.1149668 C9.37204741,3.60198101 9.67327196,4.27478488 9.67327196,5.01794352 C9.67327196,5.81241899 9.37691593,6.51391414 8.89118553,7.0177089 C8.40446145,7.52253429 7.72878132,7.82711812 6.98205648,7.82711812 L6.98205648,7.82711812 L3.17178967,7.82711812 C2.42863104,7.82711812 1.75582717,7.52589356 1.26881296,7.03887935 C0.781798745,6.55186514 0.480574193,5.87906127 0.480574193,5.13590264 C0.480574193,4.34142716 0.776930219,3.63993201 1.26266063,3.13613725 C1.74938471,2.63131186 2.42506483,2.32672804 3.17178967,2.32672804 L3.17178967,2.32672804 Z" id="Rectangle" stroke="#FFFFFF" stroke-width="0.961148385" transform="translate(5.076923, 5.076923) rotate(-270.000000) translate(-5.076923, -5.076923) "></path>
                    <rect id="Rectangle" fill="#FFFFFF" x="0" y="4.61538462" width="10.1538462" height="7.38461538" rx="1.53783742"></rect>
                </g>
            </g>
        </g>
    </g>
</svg>